<mxfile host="app.diagrams.net" modified="2021-11-03T09:30:53.802Z" agent="5.0 (Windows NT 10.0; Win64; x64) AppleWebKit/537.36 (KHTML, like Gecko) Chrome/87.0.4280.66 Safari/537.36" etag="eA1G5oH5gmb5yA25-H1J" version="15.6.6" type="github">
  <diagram id="64yseJ-zdBtOIeOJdC3K" name="Page-1">
    <mxGraphModel dx="1038" dy="580" grid="0" gridSize="10" guides="1" tooltips="1" connect="1" arrows="1" fold="1" page="1" pageScale="1" pageWidth="827" pageHeight="1169" math="0" shadow="0">
      <root>
        <mxCell id="0" />
        <mxCell id="1" parent="0" />
        <mxCell id="nR1WZVRFvcaP3TbpqMyg-1" value="&lt;font style=&quot;font-size: 18px&quot;&gt;边缘设备&lt;/font&gt;" style="shape=cylinder3;whiteSpace=wrap;html=1;boundedLbl=1;backgroundOutline=1;size=15;fillColor=#d5e8d4;strokeColor=#82b366;fontColor=default;" vertex="1" parent="1">
          <mxGeometry x="382" y="258" width="69" height="110" as="geometry" />
        </mxCell>
        <mxCell id="nR1WZVRFvcaP3TbpqMyg-2" value="软件" style="rounded=1;whiteSpace=wrap;html=1;fontSize=18;fontColor=default;fillColor=default;strokeColor=#FF8000;strokeWidth=4;" vertex="1" parent="1">
          <mxGeometry x="372" y="174" width="84" height="34" as="geometry" />
        </mxCell>
        <mxCell id="nR1WZVRFvcaP3TbpqMyg-3" value="" style="endArrow=classic;html=1;rounded=0;fontSize=18;fontColor=default;strokeColor=#007FFF;labelBackgroundColor=default;strokeWidth=3;" edge="1" parent="1">
          <mxGeometry width="50" height="50" relative="1" as="geometry">
            <mxPoint x="414" y="211" as="sourcePoint" />
            <mxPoint x="414" y="258" as="targetPoint" />
          </mxGeometry>
        </mxCell>
        <mxCell id="nR1WZVRFvcaP3TbpqMyg-5" value="IoT设备" style="rounded=1;whiteSpace=wrap;html=1;fontSize=18;fontColor=default;strokeColor=#FF0080;strokeWidth=3;fillColor=default;" vertex="1" parent="1">
          <mxGeometry x="185" y="294" width="89" height="60" as="geometry" />
        </mxCell>
        <mxCell id="nR1WZVRFvcaP3TbpqMyg-6" value="" style="endArrow=classic;startArrow=classic;html=1;rounded=0;labelBackgroundColor=default;fontSize=18;fontColor=default;strokeColor=#007FFF;strokeWidth=3;" edge="1" parent="1">
          <mxGeometry width="50" height="50" relative="1" as="geometry">
            <mxPoint x="292" y="323.5" as="sourcePoint" />
            <mxPoint x="365" y="323.5" as="targetPoint" />
          </mxGeometry>
        </mxCell>
        <mxCell id="nR1WZVRFvcaP3TbpqMyg-7" value="" style="endArrow=classic;startArrow=classic;html=1;rounded=0;labelBackgroundColor=default;fontSize=18;fontColor=default;strokeColor=#007FFF;strokeWidth=3;" edge="1" parent="1">
          <mxGeometry width="50" height="50" relative="1" as="geometry">
            <mxPoint x="479" y="321" as="sourcePoint" />
            <mxPoint x="552" y="321" as="targetPoint" />
          </mxGeometry>
        </mxCell>
        <mxCell id="nR1WZVRFvcaP3TbpqMyg-9" value="云" style="ellipse;shape=cloud;whiteSpace=wrap;html=1;fontSize=18;fontColor=default;strokeColor=#FFFFFF;strokeWidth=3;fillColor=#E6E6E6;" vertex="1" parent="1">
          <mxGeometry x="559" y="273" width="120" height="80" as="geometry" />
        </mxCell>
      </root>
    </mxGraphModel>
  </diagram>
</mxfile>
